External Loads File
version=1
nRows=78
nColumns=13
Range=5.000000e-03-10 seconds
endheader
time 	forceRightX 	forceRightY 	forceRightZ 	pointRightX 	pointRightY 	pointRightZ 	forceLeftX 	forceLeftY 	forceLeftZ 	pointLeftX 	pointLeftY 	pointLeftZ 		
2.505000 -214.636785 495.302705 -0.000000 0.243352 0.453907 -0.101948 82.457678 -27.986910 -0.000000 0.076657 0.184866 -0.339944
2.510000 -220.619552 498.638654 -0.000000 0.247244 0.449608 -0.101893 84.502171 -22.049193 -0.000000 0.072109 0.188846 -0.339793
2.515000 -225.197675 501.601912 -0.000000 0.251259 0.445053 -0.101978 86.817382 -15.374327 -0.000000 0.067583 0.193164 -0.339713
2.520000 -229.345721 504.007756 -0.000000 0.255189 0.440472 -0.101857 89.447991 -7.957939 -0.000000 0.063202 0.197440 -0.339570
2.525000 -232.749803 506.211437 -0.000000 0.258751 0.435555 -0.101751 92.383916 -0.031614 -0.000000 0.058940 0.202013 -0.339466
2.530000 -235.480943 508.383101 -0.000000 0.262378 0.430637 -0.101542 95.639844 8.190227 -0.000000 0.054859 0.206659 -0.339351
2.535000 -237.500985 510.740537 -0.000000 0.265813 0.425587 -0.101102 99.237899 16.409050 -0.000000 0.050895 0.211571 -0.339249
2.540000 -238.231556 513.734166 -0.000000 0.269557 0.420339 -0.101566 103.222981 24.168535 -0.000000 0.047019 0.216548 -0.339057
2.545000 -238.887728 516.925411 -0.000000 0.272815 0.414926 -0.101592 107.524534 31.364722 -0.000000 0.043397 0.221685 -0.338973
2.550000 -238.752185 520.697981 -0.000000 0.275944 0.409400 -0.101545 112.079402 37.557361 -0.000000 0.039891 0.227009 -0.338863
2.555000 -238.116733 524.925428 -0.000000 0.278922 0.403783 -0.101532 116.714655 42.581417 -0.000000 0.036629 0.232389 -0.338742
2.560000 -236.848299 529.683548 -0.000000 0.281762 0.398063 -0.101621 121.255760 46.253076 -0.000000 0.033610 0.237872 -0.338636
2.565000 -234.876803 535.027989 -0.000000 0.284421 0.392210 -0.101567 125.528058 48.462534 -0.000000 0.030802 0.243490 -0.338546
2.570000 -232.169092 540.964763 -0.000000 0.287029 0.386210 -0.101577 129.374543 49.164946 -0.000000 0.028295 0.249222 -0.338514
2.575000 -228.907793 547.343364 -0.000000 0.289447 0.380171 -0.101575 132.642824 48.417616 -0.000000 0.026024 0.255108 -0.338476
2.580000 -225.080341 554.055094 -0.000000 0.291724 0.374071 -0.101502 135.225533 46.280271 -0.000000 0.023972 0.261100 -0.338397
2.585000 -220.898286 560.899158 -0.000000 0.293764 0.367886 -0.101562 137.032229 42.922751 -0.000000 0.022260 0.267144 -0.338390
2.590000 -216.429467 567.762620 -0.000000 0.295676 0.361682 -0.101566 138.029861 38.524241 -0.000000 0.020846 0.273198 -0.338377
2.595000 -211.198676 574.767812 -0.000000 0.297495 0.355376 -0.101568 138.264151 33.144244 -0.000000 0.019685 0.279399 -0.338397
2.600000 -205.731590 581.690005 -0.000000 0.299022 0.349031 -0.101638 137.750967 27.079570 -0.000000 0.018768 0.285604 -0.338344
2.605000 -199.868796 588.601493 -0.000000 0.300407 0.342673 -0.101732 136.576390 20.455355 -0.000000 0.018110 0.291889 -0.338323
2.610000 -193.617053 595.535150 -0.000000 0.301579 0.336238 -0.101838 134.829318 13.433499 -0.000000 0.017772 0.298213 -0.338372
2.615000 -186.884328 602.539538 -0.000000 0.302611 0.329801 -0.101923 132.614264 6.144277 -0.000000 0.017587 0.304649 -0.338371
2.620000 -180.076520 609.461416 -0.000000 0.303499 0.323402 -0.101992 130.047688 -1.189278 -0.000000 0.017750 0.311060 -0.338372
2.625000 -172.926215 616.306440 -0.000000 0.304165 0.316980 -0.102123 127.256102 -8.506624 -0.000000 0.018134 0.317467 -0.338414
2.630000 -165.365330 622.974768 -0.000000 0.304687 0.310574 -0.102169 124.335695 -15.710280 -0.000000 0.018700 0.323914 -0.338394
2.635000 -157.105050 629.405343 -0.000000 0.304991 0.304166 -0.102162 121.342130 -22.757815 -0.000000 0.019565 0.330492 -0.338500
2.640000 -148.950468 635.268873 -0.000000 0.305181 0.297730 -0.101994 118.343891 -29.409924 -0.000000 0.020632 0.336840 -0.338512
2.645000 -140.091899 640.654815 -0.000000 0.304956 0.291292 -0.102225 115.334226 -35.748573 -0.000000 0.021978 0.343279 -0.338582
2.650000 -132.498884 645.059489 -0.000000 0.304609 0.285099 -0.102184 112.455401 -41.363726 -0.000000 0.023378 0.349278 -0.338545
2.655000 -123.482569 649.011776 -0.000000 0.304234 0.278817 -0.101686 109.583709 -46.696972 -0.000000 0.025048 0.355662 -0.338632
2.660000 -113.943425 652.281789 -0.000000 0.303259 0.272530 -0.102319 106.791265 -51.563927 -0.000000 0.026982 0.361989 -0.338756
2.665000 -104.592190 654.736104 -0.000000 0.302293 0.266400 -0.102451 104.144889 -55.840789 -0.000000 0.029239 0.368236 -0.338706
2.670000 -94.877750 656.465057 -0.000000 0.301076 0.260217 -0.102462 101.585155 -59.623177 -0.000000 0.031611 0.374437 -0.338827
2.675000 -85.440636 657.369265 -0.000000 0.299688 0.254269 -0.102592 99.114990 -62.828248 -0.000000 0.034224 0.380574 -0.339276
2.680000 -75.651108 657.532516 -0.000000 0.298159 0.248239 -0.102715 96.593317 -65.566763 -0.000000 0.037030 0.386688 -0.339309
2.685000 -65.872674 656.884247 -0.000000 0.296320 0.242356 -0.102754 93.968826 -67.783725 -0.000000 0.040022 0.392740 -0.339233
2.690000 -56.508654 655.348480 -0.000000 0.294338 0.236666 -0.102811 91.208236 -69.426837 -0.000000 0.043271 0.398614 -0.339191
2.695000 -47.414376 652.908156 -0.000000 0.292130 0.231111 -0.102756 88.228880 -70.552841 -0.000000 0.046658 0.404335 -0.339247
2.700000 -38.073530 649.565174 -0.000000 0.289728 0.225493 -0.102670 84.913443 -71.299726 -0.000000 0.050218 0.410013 -0.339301
2.705000 -29.364690 645.223477 -0.000000 0.286969 0.220176 -0.102370 81.301410 -71.647119 -0.000000 0.053970 0.415337 -0.339441
2.710000 -19.536197 639.903399 -0.000000 0.284241 0.214924 -0.102304 77.138893 -71.925989 -0.000000 0.058858 0.420546 -0.340417
2.715000 -10.612301 633.464381 -0.000000 0.281272 0.209768 -0.102232 72.588715 -72.005422 -0.000000 0.063173 0.425856 -0.340443
2.720000 -2.444472 625.924088 -0.000000 0.278197 0.204927 -0.102167 67.575081 -72.046119 -0.000000 0.067617 0.431011 -0.340533
2.725000 5.463366 617.351758 -0.000000 0.274951 0.200078 -0.102104 61.989553 -72.237035 -0.000000 0.072287 0.435907 -0.340353
2.730000 12.991208 607.854994 -0.000000 0.271577 0.195425 -0.102044 55.811762 -72.673380 -0.000000 0.077093 0.440817 -0.340396
2.735000 19.129224 597.600897 -0.000000 0.268033 0.191066 -0.101916 49.157429 -73.351219 -0.000000 0.081677 0.445449 -0.339987
2.740000 26.030676 586.673899 -0.000000 0.264356 0.186649 -0.101865 41.790943 -74.499542 -0.000000 0.087012 0.449903 -0.340094
2.745000 31.908209 575.275870 -0.000000 0.260555 0.182685 -0.101757 34.000632 -75.961504 -0.000000 0.092322 0.454179 -0.339929
2.750000 37.871773 563.479022 -0.000000 0.256540 0.178800 -0.101714 25.750788 -77.714693 -0.000000 0.097890 0.458301 -0.340082
2.755000 43.226131 551.401882 -0.000000 0.252416 0.175150 -0.101629 17.269806 -79.513402 -0.000000 0.103479 0.462229 -0.339924
2.760000 48.549379 539.004442 -0.000000 0.248117 0.171613 -0.101546 8.639515 -81.079470 -0.000000 0.109181 0.466105 -0.340064
2.765000 53.448151 526.237701 -0.000000 0.243695 0.168319 -0.101458 0.106468 -82.064602 -0.000000 0.114928 0.469711 -0.339869
2.770000 57.885356 512.964501 -0.000000 0.239136 0.165253 -0.101434 -8.129935 -82.168054 -0.000000 0.120545 0.473079 -0.339829
2.775000 62.207501 498.950976 -0.000000 0.234473 0.162545 -0.101306 -15.975666 -81.117971 -0.000000 0.126266 0.476156 -0.339935
2.780000 66.612678 483.933938 -0.000000 0.229627 0.159951 -0.101191 -23.374089 -78.645414 -0.000000 0.131927 0.479408 -0.339857
2.785000 70.880675 467.692986 -0.000000 0.224631 0.157591 -0.101155 -30.235368 -74.533091 -0.000000 0.137654 0.482046 -0.339928
2.790000 75.216696 449.967056 -0.000000 0.219532 0.155478 -0.101199 -36.552625 -68.629887 -0.000000 0.143581 0.484459 -0.340093
2.795000 78.992322 430.672363 -0.000000 0.214351 0.153776 -0.101054 -42.204745 -60.961485 -0.000000 0.149366 0.486554 -0.340281
2.800000 82.343880 409.644690 -0.000000 0.209074 0.152214 -0.101061 -47.202910 -51.595021 -0.000000 0.155144 0.488402 -0.340363
2.805000 85.041914 386.804487 -0.000000 0.203730 0.151036 -0.101095 -51.503368 -40.679315 -0.000000 0.160881 0.490010 -0.340574
2.810000 86.804624 362.126177 -0.000000 0.198277 0.150002 -0.101045 -55.064649 -28.387870 -0.000000 0.166395 0.491449 -0.340522
2.815000 87.518903 335.622081 -0.000000 0.192860 0.149362 -0.101092 -57.883645 -14.833395 -0.000000 0.171855 0.492595 -0.340729
2.820000 87.067885 307.400055 -0.000000 0.187381 0.148994 -0.101175 -59.979612 -0.002019 -0.000000 0.177186 0.493566 -0.340849
2.825000 85.077584 277.755591 -0.000000 0.181961 0.148851 -0.101115 -61.405499 16.257376 -0.000000 0.182210 0.494206 -0.340871
2.830000 81.843770 246.911211 -0.000000 0.176454 0.149034 -0.101217 -62.221848 34.408428 -0.000000 0.187188 0.494424 -0.341182
2.835000 77.150536 215.372501 -0.000000 0.171107 0.149528 -0.101062 -62.529104 54.889612 -0.000000 0.192040 0.494235 -0.341590
2.840000 71.300849 183.606938 -0.000000 0.165760 0.150182 -0.100933 -62.384897 78.238610 -0.000000 0.196887 0.493728 -0.342233
2.845000 64.400145 152.255433 -0.000000 0.160177 0.151099 -0.101305 -61.937468 104.804190 -0.000000 0.201297 0.492719 -0.342651
2.850000 56.746342 121.943307 -0.000000 0.154760 0.152291 -0.101270 -61.422851 134.734514 -0.000000 0.205519 0.491432 -0.343070
2.855000 48.743098 93.209733 -0.000000 0.149142 0.153840 -0.101517 -61.189028 167.864931 -0.000000 0.209205 0.489793 -0.342550
2.860000 40.993820 66.314007 -0.000000 0.143525 0.155588 -0.101480 -61.148369 203.813981 -0.000000 0.213326 0.487780 -0.343364
2.865000 33.631785 41.521499 -0.000000 0.137832 0.157681 -0.101435 -61.861273 241.584141 -0.000000 0.217362 0.485402 -0.343870
2.870000 26.913933 18.832850 -0.000000 0.132082 0.159978 -0.101469 -63.605251 280.010463 -0.000000 0.221451 0.482706 -0.344166
2.875000 20.995257 -1.841106 -0.000000 0.126220 0.162600 -0.101467 -66.632720 317.779923 -0.000000 0.225569 0.480046 -0.344626
2.880000 15.931555 -20.635620 -0.000000 0.120373 0.165472 -0.101459 -70.981488 353.617058 -0.000000 0.229782 0.476846 -0.344854
2.885000 11.679087 -37.675875 -0.000000 0.114563 0.168703 -0.101495 -76.695735 386.367611 -0.000000 0.234121 0.473420 -0.345126
2.890000 8.093869 -53.061257 -0.000000 0.108665 0.172196 -0.101618 -83.461161 415.185983 -0.000000 0.238536 0.469339 -0.345263
